<svg xmlns="http://www.w3.org/2000/svg" viewBox="0 0 453 453">
  <path d="m438 433.7-419.3.6.6-418.7c0-8.3-.5-15-8.8-15S0 6.7 0 15v423a15 15 0 0 0 15 15h423c8.3 0 14.4-2.2 14.4-10.5s-6.1-8.8-14.4-8.8z"/>
  <path d="M57 406h79a10 10 0 0 0 10-10v-83a10 10 0 0 0-10-10H57a10 10 0 0 0-10 10v83a10 10 0 0 0 10 10zm10-83h59v63H67v-63zm112.1 83h79a10 10 0 0 0 10-10V180.4a10 10 0 0 0-10-10h-79a10 10 0 0 0-10 10V396a10 10 0 0 0 10 10zm10-215.6h59V386h-59V190.4zm116 215.6H384a10 10 0 0 0 10-10V49.2a10 10 0 0 0-10-10h-79a10 10 0 0 0-10 10V396a10 10 0 0 0 10 10zm10-346.8H374V386h-59V59.2z"/>
</svg>
