<svg xmlns="http://www.w3.org/2000/svg" viewBox="0 0 117.03 122.88">
    <path
        d="M75.83 108.59c-.38 2-1.05 3.84-2.02 5.52-1 1.73-2.31 3.28-3.93 4.65a17.25 17.25 0 0 1-11.36 4.12 17.21 17.21 0 0 1-11.36-4.12 17.66 17.66 0 0 1-3.92-4.65c-1-1.73-1.69-3.63-2.06-5.7a1.87 1.87 0 0 1 1.51-2.18l.33-.03h31a1.88 1.88 0 0 1 1.8 2.39zM68.4 6.87c1.52.4 3 .88 4.43 1.44a40.56 40.56 0 0 1 6.07 3l.23.16a40.55 40.55 0 0 1 5.19 3.77 39.77 39.77 0 0 1 4.67 4.75v.02H89a39.92 39.92 0 0 1 3.79 5.46 41.42 41.42 0 0 1 2.86 6.05 36.91 36.91 0 0 1 1.84 6.62 39.61 39.61 0 0 1 .6 6.99l.01 7.56.04 7.09v.02a52.96 52.96 0 0 0 .4 6.28 49.76 49.76 0 0 0 1.12 6.02 30.95 30.95 0 0 0 1.97 5.49 35.46 35.46 0 0 0 3.09 5.31 31.6 31.6 0 0 0 4.5 5.02 53.12 53.12 0 0 0 6.45 5.03 3.06 3.06 0 0 1-1.7 5.6v.02H3.07a3.08 3.08 0 0 1-1.59-5.71 53.97 53.97 0 0 0 6.42-5 31.16 31.16 0 0 0 4.57-5.21 36.9 36.9 0 0 0 2.97-5.17 32.76 32.76 0 0 0 2.04-5.64 46.4 46.4 0 0 0 1.08-5.81 51.86 51.86 0 0 0 .38-6.34V45.13c0-2.34.21-4.67.63-6.99a36.97 36.97 0 0 1 1.85-6.65 41.92 41.92 0 0 1 2.9-6.1 40.7 40.7 0 0 1 3.83-5.5l.02-.02a39.93 39.93 0 0 1 10.15-8.66 38.78 38.78 0 0 1 6.13-2.97 38.48 38.48 0 0 1 4.52-1.4 9.29 9.29 0 0 1 2.73-4.5C53.47.75 55.8-.02 58.7 0c2.88.03 5.2.82 6.95 2.4a9.34 9.34 0 0 1 2.74 4.47zm2.2 7.16a33.16 33.16 0 0 0-5.2-1.58 3.08 3.08 0 0 1-2.67-2.67c-.16-1.35-.55-2.29-1.15-2.82-.6-.54-1.58-.82-2.92-.83-1.33-.01-2.29.24-2.88.77-.6.54-.98 1.49-1.14 2.85a3.07 3.07 0 0 1-2.49 2.67 32.58 32.58 0 0 0-10.69 4.05 33.81 33.81 0 0 0-8.58 7.34 34.61 34.61 0 0 0-3.24 4.66 35.73 35.73 0 0 0-2.48 5.2 30.78 30.78 0 0 0-1.56 5.55 33.06 33.06 0 0 0-.5 5.91v14.56c0 2.42-.15 4.78-.43 7.09a51.53 51.53 0 0 1-1.26 6.6c0 .05-.02.1-.03.14a38.89 38.89 0 0 1-2.39 6.55 43.18 43.18 0 0 1-3.46 6.05 3.17 3.17 0 0 1-.12.19 37.45 37.45 0 0 1-5.35 6.04l-.08.07h93.05a37.79 37.79 0 0 1-5.33-6 41.7 41.7 0 0 1-3.62-6.23 37.24 37.24 0 0 1-2.37-6.58v-.01a55.5 55.5 0 0 1-1.27-6.77 59.85 59.85 0 0 1-.42-7l-.05-7.13a3586.95 3586.95 0 0 1-.02-7.57c0-2.02-.17-4-.51-5.9a30.8 30.8 0 0 0-1.52-5.52v-.01a35.35 35.35 0 0 0-2.44-5.18 33.89 33.89 0 0 0-3.21-4.62 33.56 33.56 0 0 0-3.94-4 34.56 34.56 0 0 0-4.4-3.2 2.9 2.9 0 0 1-.2-.12 34.45 34.45 0 0 0-5.14-2.55z" />
</svg>