<svg xmlns="http://www.w3.org/2000/svg" viewBox="0 0 372.5 372.5">
  <path d="M372.5 263a108.8 108.8 0 0 0-52.5-92.6A81.1 81.1 0 1 0 198 65.3a81.3 81.3 0 0 0-23.5 0 81.1 81.1 0 1 0-122 105.2A108.8 108.8 0 0 0 0 263v45.1h78.1V342h216.3v-34h78v-45zM264.4 50.6a61.1 61.1 0 1 1-1.8 122v-.3a80.2 80.2 0 0 0 2.7-9.1l.1-.7.5-2.5.3-1.2a81.4 81.4 0 0 0 .5-3.9 83.8 83.8 0 0 0 .4-4v-1.7l.2-3.5v-.4a82.6 82.6 0 0 0-.1-3.6v-1a84 84 0 0 0-.3-3.1v-.7a80.6 80.6 0 0 0-48.2-65.8 61.2 61.2 0 0 1 45.7-20.5zM165 88.1l.6-.2a58.8 58.8 0 0 1 4.3-1.3 61 61 0 0 1 16.2-2.2 61.2 61.2 0 0 1 17.3 2.5 61.3 61.3 0 0 1 3.3 1l.6.2a61.2 61.2 0 0 1 39.1 47.8l.1.5.3 2.3v.8c.2.7.2 1.4.2 2l.1 1v6.4l-.2 2.5-.1 1a64 64 0 0 1-.2 1.5l-.2 1.3a60.2 60.2 0 0 1-1 4.5 61.5 61.5 0 0 1-.6 2.4l-.2 1-.5 1.3c0 .4-.2.7-.3 1.1l-.5 1.2-.8 2-.4 1a59.7 59.7 0 0 1-.7 1.7l-.1.2-.3.6a58.2 58.2 0 0 1-1 1.8l-.3.7a61.4 61.4 0 0 1-1.1 1.9l-.4.7a61 61 0 0 1-1.3 2l-.8 1-.7 1a62.1 62.1 0 0 1-1.6 2.1l-1 1.3-.7.8-1 1.2-.7.7a62.4 62.4 0 0 1-1.9 1.9l-1 1-.9.7a60.4 60.4 0 0 1-2 1.8L223 194l-.4.3a60.7 60.7 0 0 1-72.7 0l-.4-.3a59.8 59.8 0 0 1-1.7-1.3l-.7-.6a63.7 63.7 0 0 1-1.3-1.2l-.8-.7-1.2-1a61.6 61.6 0 0 1-1.8-2l-.7-.6-1-1.3-.7-.7a63.8 63.8 0 0 1-1.7-2 63 63 0 0 1-1-1.3l-.6-1-.8-1.2a60.8 60.8 0 0 1-1.3-1.9l-.4-.7a61 61 0 0 1-1-2l-.5-.6a62 62 0 0 1-.9-1.8l-.3-.7a60 60 0 0 1-.9-1.8l-.3-.9a61.8 61.8 0 0 1-.9-2c0-.5-.2-.9-.4-1.2a59.6 59.6 0 0 1-.4-1.2l-.4-1.3a59.2 59.2 0 0 1-.5-2l-.4-1.4a58.1 58.1 0 0 1-.2-1l-.3-1.4a59.7 59.7 0 0 1-.4-2.2l-.2-1.1a60.4 60.4 0 0 1-.2-1.7l-.1-.9a61 61 0 0 1-.2-2.5v-.8a61 61 0 0 1-.1-2.7v-3l.1-.7.2-2.2v-.8l.4-2.3v-.5A61.2 61.2 0 0 1 165.1 88zM47 111.6a61.1 61.1 0 0 1 106.6-40.5 80.6 80.6 0 0 0-48 65.8l-.1.6a81.2 81.2 0 0 0-.2 3.2l-.1 1a82.7 82.7 0 0 0-.1 3.7l.1 3.8.1 1.6a84.5 84.5 0 0 0 .4 4 78.8 78.8 0 0 0 .5 4l.3 1.3.4 2.4.2.8a80 80 0 0 0 2.5 8.8l.2.6H108c-33.6 0-61-27.4-61-61zm47.8 127.5-.7 1.1-1.3 2.2-.7 1.3a106.5 106.5 0 0 0-1.9 3.4 109 109 0 0 0-2.7 5.7L87 254l-1.1 2.7-.3.8a106.1 106.1 0 0 0-1.4 3.5l-.2.9-1 2.7-.3 1.3a106 106 0 0 0-1.1 3.8 98.6 98.6 0 0 0-.6 2.2 107.8 107.8 0 0 0-.8 3.8c0 .5-.2 1-.3 1.4l-.4 2.6-.2 1.2a107.2 107.2 0 0 0-.5 3.7l-.3 3.5H20v-25a88 88 0 0 1 50.5-79.7 80.5 80.5 0 0 0 37.6 9.3c4 0 7.9-.3 11.8-.9a82.7 82.7 0 0 0 1.8 2.6l.7.8a80.7 80.7 0 0 0 2 2.4l.8 1a80.4 80.4 0 0 0 2.9 3.2 84.2 84.2 0 0 0 1.8 1.7l.6.7-2.5 1.6-.4.3-2.6 1.7-.8.6-2.3 1.6-.7.5-2.7 2.2-.6.5a105.2 105.2 0 0 0-3 2.5 110.6 110.6 0 0 0-2 1.9l-.6.5a106.6 106.6 0 0 0-2.5 2.4l-.6.7-2 2-.6.7-2 2.3-.4.4-2.3 2.7-.6.8-1.6 2-.6 1a111.8 111.8 0 0 0-2.1 2.8 107.4 107.4 0 0 0-2.1 3.2zM98 322v-28.5l.1-1.1.2-2.2v-1.3l.3-2c0-.4 0-1 .2-1.4l.2-1.8.2-1.5.3-1.7.3-1.5.4-1.7.4-1.5c0-.5.2-1 .4-1.6 0-.5.2-1 .4-1.5l.4-1.6.5-1.5.5-1.6.6-1.4.5-1.6.6-1.4.6-1.5.7-1.4.6-1.5.7-1.4.8-1.5.7-1.4.8-1.4.8-1.3.8-1.4.8-1.3.9-1.4.9-1.3.9-1.3 1-1.3 1-1.2c.2-.5.6-.9.9-1.3l1-1.2a92 92 0 0 1 1-1.2l1-1.2 1.2-1.2a85.4 85.4 0 0 1 4.5-4.5 94 94 0 0 1 1.2-1.1 86.6 86.6 0 0 1 2.4-2.1 87.2 87.2 0 0 1 1.3-1l1.2-1a102 102 0 0 1 2.6-2 88 88 0 0 1 4-2.7 85 85 0 0 1 2.8-1.7 89.4 89.4 0 0 1 4.4-2.4l1.4-.7 1.2-.5a80.5 80.5 0 0 0 37.5 9.2 80.5 80.5 0 0 0 37.6-9.2l1.1.5a98.5 98.5 0 0 1 3 1.5 89 89 0 0 1 2.8 1.6 84.3 84.3 0 0 1 2.8 1.7 83.6 83.6 0 0 1 2.7 1.8 82.3 82.3 0 0 1 2.7 1.9 82.5 82.5 0 0 1 2.5 2 94.3 94.3 0 0 1 2.5 2 81.5 81.5 0 0 1 2.4 2.2 87.7 87.7 0 0 1 8.7 9.3l1 1.3 1 1.2.9 1.3.9 1.3.9 1.3.8 1.4.9 1.3.8 1.4.8 1.3.8 1.4.7 1.4.7 1.5.7 1.4.7 1.5.6 1.4.7 1.5.6 1.4.5 1.6.5 1.4.6 1.6.4 1.5.5 1.6.4 1.5.4 1.6.4 1.5.3 1.7.3 1.5.3 1.7.3 1.5.2 1.8.2 1.4.2 2 .1 1.3.1 2.2.1 1v28.4h-176zm196-33.8a108.4 108.4 0 0 0-1-7.2l-.1-1.2-.5-2.6-.2-1.4-.5-2.3a112.5 112.5 0 0 0-1.3-5.1l-.7-2.4-.4-1.3-.9-2.8-.2-.8a106.8 106.8 0 0 0-1.4-3.5c0-.3-.2-.5-.3-.8l-1.1-2.7-.6-1.2-1-2.3-.7-1.3a108.1 108.1 0 0 0-1.7-3.4l-1.2-2.1-.7-1.3-1.4-2.2-.6-1a108.8 108.8 0 0 0-2.1-3.3 112.6 112.6 0 0 0-2-2.9l-.7-.8-1.7-2.1-.6-.8-2.2-2.7-.3-.4a108.1 108.1 0 0 0-4.7-5l-.6-.7a109.2 109.2 0 0 0-2.5-2.4l-.6-.5a111.4 111.4 0 0 0-2-2l-.9-.6a108.3 108.3 0 0 0-2.1-1.8l-.6-.5a107.7 107.7 0 0 0-2.8-2.2l-.7-.5a108.2 108.2 0 0 0-5.5-3.9c-.2 0-.3-.2-.5-.3l-2.6-1.6.7-.6 1.8-1.9a75.5 75.5 0 0 0 3-3.1l.7-1a80.6 80.6 0 0 0 2-2.4l.6-.8a83.4 83.4 0 0 0 2-2.6c3.8.6 7.7.9 11.7.9a80.5 80.5 0 0 0 37.5-9.3 88 88 0 0 1 50.6 79.6v25.1H294z"/>
</svg>
